<svg width="300" height="283" viewBox="0 0 300 283" fill="none" xmlns="http://www.w3.org/2000/svg">
<rect x="0.5" y="0.5" width="299" height="281.983" rx="23.5" fill="white"/>
<rect x="0.5" y="0.5" width="299" height="281.983" rx="23.5" stroke="#E1E2E6"/>
<path d="M200.075 148.163C198.076 145.867 191.853 143.448 186.855 143.454C187.848 138.744 186.502 134.191 183.038 129.604L181.708 128.081L180.19 129.423C177.203 132.078 175.157 136.134 174.428 140.123C174.033 142.596 174.146 145.524 175.235 147.919C168.225 149.812 162.848 147.515 138.085 140.88L99.8529 130.636C98.2429 136.197 96.2595 147.194 100.753 157.783C101.25 158.953 101.828 160.111 102.485 161.253C106.554 168.312 113.862 174.647 126.424 178.025C145.587 183.178 164.786 177.219 181.487 154.844C184.76 155.779 193.294 158.639 199.739 151.571C199.88 151.461 201.403 149.684 201.403 149.684L200.075 148.163ZM128.683 122.848L117.931 119.967L115.051 130.718L125.802 133.599L128.683 122.848ZM142.572 126.569L131.821 123.688L128.94 134.44L139.691 137.32L142.572 126.569ZM156.462 130.291L145.711 127.41L142.83 138.161L153.581 141.042L156.462 130.291ZM170.35 134.012L159.599 131.132L156.718 141.883L167.469 144.763L170.35 134.012ZM114.793 119.126L104.042 116.245L101.161 126.996L111.912 129.877L114.793 119.126ZM132.321 109.268L121.57 106.388L118.689 117.139L129.44 120.02L132.321 109.268ZM146.211 112.99L135.46 110.109L132.579 120.861L143.33 123.741L146.211 112.99ZM160.1 116.712L149.349 113.831L146.468 124.582L157.22 127.463L160.1 116.712ZM163.739 103.131L152.988 100.251L150.107 111.002L160.858 113.883L163.739 103.131Z" fill="#1D63ED"/>
</svg>
