<?xml version="1.0" standalone="no"?>
<!DOCTYPE svg PUBLIC "-//W3C//DTD SVG 20010904//EN"
 "http://www.w3.org/TR/2001/REC-SVG-20010904/DTD/svg10.dtd">
<svg version="1.0" xmlns="http://www.w3.org/2000/svg"
 width="692.000000pt" height="692.000000pt" viewBox="0 0 692.000000 692.000000"
 preserveAspectRatio="xMidYMid meet">

<g transform="translate(0.000000,692.000000) scale(0.100000,-0.100000)"
fill="#000000" stroke="none">
<path d="M1655 6629 c-193 -20 -374 -74 -552 -164 -305 -155 -549 -399 -698
-700 -103 -207 -148 -369 -165 -589 -13 -160 -13 -3422 0 -3582 17 -220 62
-382 165 -589 238 -481 707 -803 1257 -864 135 -15 3511 -15 3646 0 209 23
377 72 559 164 306 155 549 398 698 700 96 192 141 347 165 560 13 123 13
3517 0 3640 -24 213 -69 368 -165 560 -149 301 -393 545 -698 700 -185 93
-355 143 -566 164 -125 13 -3524 13 -3646 0z m2368 -1695 c29 -14 66 -36 82
-49 20 -14 57 -26 107 -33 42 -7 102 -23 133 -36 125 -56 281 -186 382 -318
55 -74 73 -107 168 -318 36 -79 72 -155 81 -168 8 -12 53 -41 99 -63 130 -61
305 -201 305 -243 0 -8 -23 -18 -62 -25 -139 -26 -166 -34 -162 -45 3 -7 39
-34 80 -61 73 -47 194 -167 194 -193 0 -7 -23 4 -53 27 -29 21 -82 53 -118 71
-93 47 -146 86 -180 132 -44 62 -40 74 36 97 36 11 92 22 125 23 32 1 56 6 54
10 -8 12 -143 102 -189 125 -22 12 -66 29 -99 39 -41 13 -65 28 -82 49 -24 32
-100 188 -159 326 -85 202 -304 420 -483 483 -24 9 -73 19 -110 22 -52 6 -74
14 -107 39 -23 17 -70 42 -104 55 -57 21 -64 22 -78 7 -21 -21 -13 -39 57
-135 37 -51 63 -102 91 -181 35 -100 54 -138 105 -209 16 -21 15 -26 -7 -90
-34 -95 -34 -253 0 -329 13 -29 29 -57 36 -63 14 -12 18 0 31 92 6 48 55 138
74 138 6 0 16 -14 22 -30 39 -112 140 -283 211 -357 67 -70 34 -60 -48 13 -88
80 -123 122 -155 184 l-24 45 -11 -64 c-20 -105 -66 -127 -135 -65 -78 70
-109 230 -75 381 10 43 22 86 27 96 7 13 1 27 -21 55 -31 38 -74 134 -104 232
-10 30 -38 82 -63 115 -90 118 -102 169 -52 222 31 33 111 32 181 -3z m-443
-1505 c60 -14 130 -49 130 -66 0 -18 -28 -73 -38 -73 -4 0 -29 7 -56 15 -27 8
-76 15 -108 15 -98 0 -148 -39 -148 -117 0 -36 6 -49 38 -80 21 -21 91 -67
155 -102 174 -95 226 -164 215 -281 -17 -171 -196 -278 -395 -236 -68 14 -165
55 -178 75 -3 6 3 28 15 50 l20 40 42 -19 c24 -10 72 -24 108 -30 87 -15 163
8 197 59 50 74 19 142 -97 210 -41 24 -106 62 -145 85 -97 57 -129 104 -133
200 -3 59 0 81 18 119 55 117 201 173 360 136z m781 -16 c67 -30 116 -78 148
-147 40 -84 51 -147 51 -285 0 -178 -34 -294 -112 -376 l-28 -31 80 -39 c44
-21 80 -42 80 -46 0 -14 -55 -98 -64 -99 -5 0 -56 27 -113 60 l-104 60 -51
-11 c-100 -22 -231 9 -301 71 -106 93 -152 311 -113 532 31 169 117 281 249
324 63 21 220 13 278 -13z m-2582 -94 c20 -59 68 -204 106 -323 39 -118 72
-215 75 -216 3 0 54 146 114 325 l108 325 93 0 93 0 11 -92 c25 -216 58 -648
61 -810 0 -16 -10 -18 -79 -18 l-79 0 -6 118 c-9 183 -37 567 -42 571 -2 2 -6
-2 -8 -10 -17 -50 -133 -409 -172 -531 l-46 -148 -63 0 -62 0 -20 68 c-11 37
-60 192 -109 345 -73 231 -90 273 -96 250 -4 -15 -13 -171 -20 -345 l-12 -318
-68 0 -68 0 0 138 c0 185 35 650 56 755 l6 28 95 -3 96 -3 36 -106z m3061
-289 l0 -399 143 -3 142 -3 3 -57 3 -58 -221 0 -220 0 0 460 0 460 75 0 75 0
0 -400z m-2169 133 c14 -36 136 -449 144 -488 l7 -30 14 40 c26 74 84 319 97
410 l13 90 77 3 c42 2 77 1 77 -2 0 -26 -47 -229 -78 -336 -84 -288 -179 -460
-299 -539 -42 -28 -54 -31 -128 -31 -93 0 -105 7 -105 62 l0 38 61 0 c107 0
167 57 156 150 -3 25 -49 179 -101 342 -53 163 -96 301 -96 307 0 7 27 11 75
11 73 0 76 -1 86 -27z m2617 -550 c2 -7 -3 -13 -12 -13 -10 0 -16 -12 -18 -42
-2 -30 -8 -43 -18 -43 -11 0 -14 10 -12 41 3 35 0 42 -18 47 -13 3 -19 10 -15
17 9 15 87 9 93 -7z m68 -15 l17 -33 14 33 c22 55 43 41 43 -28 0 -58 -19 -88
-21 -32 l-1 27 -11 -28 c-13 -31 -40 -33 -45 -2 -7 36 -22 41 -22 7 0 -18 -4
-32 -10 -32 -6 0 -10 27 -10 60 0 70 19 81 46 28z"/>
<path d="M4115 3306 c-40 -18 -69 -51 -97 -111 -21 -46 -23 -64 -23 -220 0
-121 4 -182 14 -210 36 -102 92 -145 188 -145 69 0 112 23 150 78 73 109 68
447 -9 555 -42 59 -151 85 -223 53z"/>
</g>
</svg>
